<svg width="66" height="66" viewBox="0 0 66 66" fill="none" xmlns="http://www.w3.org/2000/svg">
<path d="M65.1731 29.2385C65.1731 46.4866 46.0953 65.1722 28.4849 65.1722C10.8746 65.1722 0.158203 48.6594 0.158203 31.4112C0.158203 14.163 16.3351 0.157227 33.9455 0.157227C51.5558 0.157227 65.1731 11.9903 65.1731 29.2385Z" fill="#F18F04"/>
<path d="M20 41H20.8438V23H20V41ZM21.2656 41H21.6875V23H21.2656V41ZM22.5313 41H22.9531V23H22.5313V41ZM24.6406 41H25.0625V23H24.6406V41ZM26.3281 41H27.1719V23H26.3281V41ZM28.4375 41H28.8594V23H28.4375V41ZM29.2812 41H29.7031V23H29.2812V41ZM30.125 41H30.5468V23H30.125V41ZM31.7657 41H32.6094V23H31.7657V41ZM33.875 41H34.7188V23H33.875V41ZM35.5625 41H36.4063V23H35.5625V41ZM37.25 41H38.0938V23H37.25V41ZM38.5157 41H39.3594V23H38.5157V41ZM40.625 41H41.8906V23H40.625V41ZM42.3125 41H42.7344V23H42.3125V41ZM43.1563 41H44V23H43.1563V41Z" fill="white"/>
</svg>
